<svg width="31" height="31" viewBox="0 0 31 31" fill="none" xmlns="http://www.w3.org/2000/svg">
<g id="gg:list">
<path id="Vector" fill-rule="evenodd" clip-rule="evenodd" d="M25.3411 5.58789H5.34106C5.00954 5.58789 4.6916 5.71959 4.45718 5.95401C4.22276 6.18843 4.09106 6.50637 4.09106 6.83789V24.3379C4.09106 24.6694 4.22276 24.9874 4.45718 25.2218C4.6916 25.4562 5.00954 25.5879 5.34106 25.5879H25.3411C25.6726 25.5879 25.9905 25.4562 26.2249 25.2218C26.4594 24.9874 26.5911 24.6694 26.5911 24.3379V6.83789C26.5911 6.50637 26.4594 6.18843 26.2249 5.95401C25.9905 5.71959 25.6726 5.58789 25.3411 5.58789ZM5.34106 3.08789C4.3465 3.08789 3.39268 3.48298 2.68941 4.18624C1.98615 4.8895 1.59106 5.84333 1.59106 6.83789V24.3379C1.59106 25.3325 1.98615 26.2863 2.68941 26.9895C3.39268 27.6928 4.3465 28.0879 5.34106 28.0879H25.3411C26.3356 28.0879 27.2895 27.6928 27.9927 26.9895C28.696 26.2863 29.0911 25.3325 29.0911 24.3379V6.83789C29.0911 5.84333 28.696 4.8895 27.9927 4.18624C27.2895 3.48298 26.3356 3.08789 25.3411 3.08789H5.34106ZM7.84106 9.33789H10.3411V11.8379H7.84106V9.33789ZM14.0911 9.33789C13.7595 9.33789 13.4416 9.46959 13.2072 9.70401C12.9728 9.93843 12.8411 10.2564 12.8411 10.5879C12.8411 10.9194 12.9728 11.2374 13.2072 11.4718C13.4416 11.7062 13.7595 11.8379 14.0911 11.8379H21.5911C21.9226 11.8379 22.2405 11.7062 22.4749 11.4718C22.7094 11.2374 22.8411 10.9194 22.8411 10.5879C22.8411 10.2564 22.7094 9.93843 22.4749 9.70401C22.2405 9.46959 21.9226 9.33789 21.5911 9.33789H14.0911ZM10.3411 14.3379H7.84106V16.8379H10.3411V14.3379ZM12.8411 15.5879C12.8411 15.2564 12.9728 14.9384 13.2072 14.704C13.4416 14.4696 13.7595 14.3379 14.0911 14.3379H21.5911C21.9226 14.3379 22.2405 14.4696 22.4749 14.704C22.7094 14.9384 22.8411 15.2564 22.8411 15.5879C22.8411 15.9194 22.7094 16.2374 22.4749 16.4718C22.2405 16.7062 21.9226 16.8379 21.5911 16.8379H14.0911C13.7595 16.8379 13.4416 16.7062 13.2072 16.4718C12.9728 16.2374 12.8411 15.9194 12.8411 15.5879ZM10.3411 19.3379H7.84106V21.8379H10.3411V19.3379ZM12.8411 20.5879C12.8411 20.2564 12.9728 19.9384 13.2072 19.704C13.4416 19.4696 13.7595 19.3379 14.0911 19.3379H21.5911C21.9226 19.3379 22.2405 19.4696 22.4749 19.704C22.7094 19.9384 22.8411 20.2564 22.8411 20.5879C22.8411 20.9194 22.7094 21.2374 22.4749 21.4718C22.2405 21.7062 21.9226 21.8379 21.5911 21.8379H14.0911C13.7595 21.8379 13.4416 21.7062 13.2072 21.4718C12.9728 21.2374 12.8411 20.9194 12.8411 20.5879Z" fill="#776C6C"/>
</g>
</svg>
