<svg width="31" height="31" viewBox="0 0 31 31" fill="none" xmlns="http://www.w3.org/2000/svg">
<g id="Group">
<path id="Vector" fill-rule="evenodd" clip-rule="evenodd" d="M15.16 17.1356L22.2313 24.2069C22.467 24.4346 22.7828 24.5605 23.1105 24.5577C23.4383 24.5548 23.7518 24.4234 23.9836 24.1916C24.2153 23.9599 24.3468 23.6464 24.3496 23.3186C24.3525 22.9909 24.2265 22.6751 23.9988 22.4394L16.9275 15.3681L23.9988 8.29686C24.2265 8.0611 24.3525 7.74535 24.3496 7.41761C24.3468 7.08986 24.2153 6.77634 23.9836 6.54458C23.7518 6.31282 23.4383 6.18136 23.1105 6.17851C22.7828 6.17567 22.467 6.30166 22.2313 6.52936L15.16 13.6006L8.08878 6.52936C7.85196 6.30729 7.53804 6.18606 7.21344 6.19133C6.88884 6.19661 6.57902 6.32796 6.34954 6.5576C6.12006 6.78724 5.98893 7.09715 5.98389 7.42176C5.97884 7.74637 6.10029 8.0602 6.32253 8.29686L13.3925 15.3681L6.32128 22.4394C6.20189 22.5547 6.10666 22.6926 6.04115 22.8451C5.97564 22.9976 5.94116 23.1616 5.93971 23.3276C5.93827 23.4936 5.9699 23.6582 6.03275 23.8118C6.0956 23.9654 6.18842 24.105 6.30578 24.2223C6.42315 24.3397 6.56271 24.4325 6.71633 24.4954C6.86995 24.5582 7.03455 24.5899 7.20053 24.5884C7.3665 24.587 7.53053 24.5525 7.68303 24.487C7.83554 24.4215 7.97347 24.3262 8.08878 24.2069L15.16 17.1356Z" fill="#776C6C"/>
</g>
</svg>
