<svg width="36" height="36" viewBox="0 0 36 36" fill="none" xmlns="http://www.w3.org/2000/svg">
<g id="carbon:close-outline">
<path id="Vector" d="M18.1653 3.17365C9.63403 3.17365 2.85278 9.9549 2.85278 18.4861C2.85278 27.0174 9.63403 33.7986 18.1653 33.7986C26.6965 33.7986 33.4778 27.0174 33.4778 18.4861C33.4778 9.9549 26.6965 3.17365 18.1653 3.17365ZM18.1653 31.6111C10.9465 31.6111 5.04028 25.7049 5.04028 18.4861C5.04028 11.2674 10.9465 5.36115 18.1653 5.36115C25.384 5.36115 31.2903 11.2674 31.2903 18.4861C31.2903 25.7049 25.384 31.6111 18.1653 31.6111Z" fill="#776C6C"/>
<path id="Vector_2" d="M24.0715 26.1424L18.1653 20.2361L12.259 26.1424L10.509 24.3924L16.4153 18.4861L10.509 12.5799L12.259 10.8299L18.1653 16.7361L24.0715 10.8299L25.8215 12.5799L19.9153 18.4861L25.8215 24.3924L24.0715 26.1424Z" fill="#776C6C"/>
</g>
</svg>
