<svg width="31" height="31" viewBox="0 0 31 31" fill="none" xmlns="http://www.w3.org/2000/svg">
<g id="tdesign:money">
<path id="Vector" d="M15.3411 16.2129C14.1807 16.2129 13.0679 16.6738 12.2475 17.4943C11.427 18.3148 10.9661 19.4276 10.9661 20.5879C10.9661 21.7482 11.427 22.861 12.2475 23.6815C13.0679 24.502 14.1807 24.9629 15.3411 24.9629C16.5014 24.9629 17.6142 24.502 18.4347 23.6815C19.2551 22.861 19.7161 21.7482 19.7161 20.5879C19.7161 19.4276 19.2551 18.3148 18.4347 17.4943C17.6142 16.6738 16.5014 16.2129 15.3411 16.2129ZM13.4661 20.5879C13.4661 20.0906 13.6636 19.6137 14.0152 19.2621C14.3669 18.9104 14.8438 18.7129 15.3411 18.7129C15.8383 18.7129 16.3153 18.9104 16.6669 19.2621C17.0185 19.6137 17.2161 20.0906 17.2161 20.5879C17.2161 21.0852 17.0185 21.5621 16.6669 21.9137C16.3153 22.2653 15.8383 22.4629 15.3411 22.4629C14.8438 22.4629 14.3669 22.2653 14.0152 21.9137C13.6636 21.5621 13.4661 21.0852 13.4661 20.5879Z" fill="#776C6C"/>
<path id="Vector_2" d="M22.2486 6.98287L18.2748 1.41162L3.66356 13.0841L2.85356 13.0754V13.0879H2.21606V28.0879H28.4661V13.0879H27.2636L24.8711 6.08912L22.2486 6.98287ZM24.6223 13.0879H12.0873L21.4236 9.90537L23.3261 9.29662L24.6223 13.0879ZM19.7786 7.82537L10.1411 11.1104L17.7736 5.01287L19.7786 7.82537ZM4.71606 23.2991V17.8741C5.24343 17.6872 5.72245 17.385 6.11818 16.9895C6.51392 16.594 6.8164 16.1151 7.00356 15.5879H23.6786C23.8657 16.1153 24.1681 16.5944 24.5638 16.9901C24.9596 17.3858 25.4386 17.6883 25.9661 17.8754V23.3004C25.4386 23.4875 24.9596 23.7899 24.5638 24.1856C24.1681 24.5814 23.8657 25.0604 23.6786 25.5879H7.00606C6.81879 25.06 6.51602 24.5805 6.11984 24.1846C5.72366 23.7886 5.24407 23.4861 4.71606 23.2991Z" fill="#776C6C"/>
</g>
</svg>
