<svg width="50" height="51" viewBox="0 0 50 51" fill="none" xmlns="http://www.w3.org/2000/svg">
<g id="clarity:new-line">
<path id="Vector" d="M48.0417 32.0334L42.375 25.089L47.9305 18.2834C48.2344 17.9111 48.4259 17.4599 48.4824 16.9827C48.539 16.5055 48.4584 16.022 48.25 15.589C48.0389 15.1036 47.6888 14.6916 47.2439 14.4049C46.799 14.1182 46.2792 13.9696 45.75 13.9779H2.69444C2.34607 13.9724 2.00001 14.0355 1.67605 14.1638C1.35209 14.292 1.05656 14.4828 0.806349 14.7253C0.556138 14.9678 0.356144 15.2572 0.217789 15.5769C0.0794342 15.8967 0.00542896 16.2406 0 16.589L0 33.6029C0.0145982 34.304 0.306252 34.9709 0.81118 35.4576C1.31611 35.9443 1.99322 36.2113 2.69444 36.2001H45.9028C46.4143 36.2086 46.9176 36.0706 47.3532 35.8024C47.7888 35.5341 48.1385 35.1468 48.3611 34.6862C48.561 34.2583 48.637 33.783 48.5805 33.3142C48.5241 32.8453 48.3374 32.4016 48.0417 32.0334ZM2.77778 33.4223V16.7556H45.5278L38.8056 24.9918L45.625 33.4223H2.77778Z" fill="#776C6C"/>
<path id="Vector_2" d="M13.0417 26.964L8.51389 20.9224H6.94444V29.5057H8.51389V23.4779L13.0417 29.5057H14.5972V20.9224H13.0417V26.964Z" fill="#776C6C"/>
<path id="Vector_3" d="M16.9167 29.5057H23.3889V28.089H18.4861V25.8529H22.9167V24.4224H18.4861V22.3529H23.3889V20.9224H16.9167V29.5057Z" fill="#776C6C"/>
<path id="Vector_4" d="M34.0556 27.0751L32.0278 20.9224H30.3333L28.2917 27.0751L26.4583 20.9224H24.75L27.4722 29.5057H29.0139L31.1806 23.1307L33.3333 29.5057H34.9028L37.6111 20.9224H35.9028L34.0556 27.0751Z" fill="#776C6C"/>
</g>
</svg>
