<svg width="23" height="28" viewBox="0 0 23 28" fill="none" xmlns="http://www.w3.org/2000/svg">
<g id="Group">
<path id="Vector" d="M11.3411 11.0879C14.1025 11.0879 16.3411 8.84931 16.3411 6.08789C16.3411 3.32647 14.1025 1.08789 11.3411 1.08789C8.57964 1.08789 6.34106 3.32647 6.34106 6.08789C6.34106 8.84931 8.57964 11.0879 11.3411 11.0879Z" stroke="#776C6C" stroke-width="1.875"/>
<path id="Vector_2" d="M21.3373 21.0879C21.3411 20.8829 21.3411 20.6741 21.3411 20.4629C21.3411 17.3566 16.8636 14.8379 11.3411 14.8379C5.81856 14.8379 1.34106 17.3566 1.34106 20.4629C1.34106 23.5691 1.34106 26.0879 11.3411 26.0879C14.1298 26.0879 16.1411 25.8916 17.5911 25.5416" stroke="#776C6C" stroke-width="1.875" stroke-linecap="round"/>
</g>
</svg>
