<svg width="28" height="25" viewBox="0 0 28 25" fill="none" xmlns="http://www.w3.org/2000/svg">
<g id="Group">
<path id="Vector" d="M1.84106 20.9447V3.4447C1.84106 2.78166 2.10446 2.14578 2.5733 1.67694C3.04214 1.20809 3.67802 0.944702 4.34106 0.944702H24.3411C25.0041 0.944702 25.64 1.20809 26.1088 1.67694C26.5777 2.14578 26.8411 2.78166 26.8411 3.4447V20.9447C26.8411 21.6077 26.5777 22.2436 26.1088 22.7125C25.64 23.1813 25.0041 23.4447 24.3411 23.4447H4.34106C3.67802 23.4447 3.04214 23.1813 2.5733 22.7125C2.10446 22.2436 1.84106 21.6077 1.84106 20.9447Z" stroke="#776C6C" stroke-width="1.875"/>
<path id="Vector_2" d="M1.84106 5.9447H26.8411M10.5911 14.6947H14.3411M14.3411 14.6947H18.0911M14.3411 14.6947V10.9447M14.3411 14.6947V18.4447" stroke="#776C6C" stroke-width="1.875" stroke-linecap="round" stroke-linejoin="round"/>
</g>
</svg>
