<svg width="31" height="31" viewBox="0 0 31 31" fill="none" xmlns="http://www.w3.org/2000/svg">
<g id="mdi:about-circle-outline">
<path id="Vector" d="M14.0911 11.8379H16.5911V9.33789H14.0911M15.3411 25.5879C9.82856 25.5879 5.34106 21.1004 5.34106 15.5879C5.34106 10.0754 9.82856 5.58789 15.3411 5.58789C20.8536 5.58789 25.3411 10.0754 25.3411 15.5879C25.3411 21.1004 20.8536 25.5879 15.3411 25.5879ZM15.3411 3.08789C13.6995 3.08789 12.0741 3.41121 10.5575 4.0394C9.04095 4.66758 7.66296 5.58832 6.50223 6.74906C4.15802 9.09326 2.84106 12.2727 2.84106 15.5879C2.84106 18.9031 4.15802 22.0825 6.50223 24.4267C7.66296 25.5875 9.04095 26.5082 10.5575 27.1364C12.0741 27.7646 13.6995 28.0879 15.3411 28.0879C18.6563 28.0879 21.8357 26.7709 24.1799 24.4267C26.5241 22.0825 27.8411 18.9031 27.8411 15.5879C27.8411 13.9464 27.5177 12.3209 26.8896 10.8043C26.2614 9.28778 25.3406 7.90979 24.1799 6.74906C23.0192 5.58832 21.6412 4.66758 20.1246 4.0394C18.608 3.41121 16.9826 3.08789 15.3411 3.08789ZM14.0911 21.8379H16.5911V14.3379H14.0911V21.8379Z" fill="#776C6C"/>
</g>
</svg>
